<svg width="172" height="32" viewBox="0 0 172 32" fill="none" xmlns="http://www.w3.org/2000/svg">
<path d="M1.845 30C1.689 30 1.596 29.919 1.566 29.757L0.405 23.979C0.399 23.949 0.396 23.916 0.396 23.88C0.396 23.832 0.414 23.79 0.45 23.754C0.486 23.718 0.528 23.7 0.576 23.7H1.044C1.17 23.7 1.242 23.751 1.26 23.853L2.178 28.497L3.15 25.311C3.204 25.167 3.3 25.095 3.438 25.095H3.771C3.849 25.095 3.909 25.116 3.951 25.158C3.999 25.2 4.032 25.251 4.05 25.311L5.031 28.497L5.94 23.853C5.958 23.751 6.033 23.7 6.165 23.7H6.633C6.681 23.7 6.723 23.718 6.759 23.754C6.795 23.79 6.813 23.832 6.813 23.88L6.804 23.979L5.643 29.757C5.607 29.919 5.514 30 5.364 30H5.013C4.857 30 4.758 29.925 4.716 29.775L3.6 26.346L2.493 29.775C2.445 29.925 2.346 30 2.196 30H1.845ZM8.80594 30C8.75794 30 8.71594 29.982 8.67994 29.946C8.64394 29.91 8.62594 29.868 8.62594 29.82C8.62594 29.772 8.62894 29.739 8.63494 29.721L10.8669 23.898C10.9149 23.766 11.0109 23.7 11.1549 23.7H11.7669C11.9109 23.7 12.0069 23.766 12.0549 23.898L14.2779 29.721L14.2959 29.82C14.2959 29.868 14.2779 29.91 14.2419 29.946C14.2059 29.982 14.1639 30 14.1159 30H13.6569C13.5909 30 13.5399 29.985 13.5039 29.955C13.4679 29.919 13.4439 29.883 13.4319 29.847L12.9369 28.569H9.98494L9.48994 29.847C9.47794 29.883 9.45094 29.919 9.40894 29.955C9.37294 29.985 9.32494 30 9.26494 30H8.80594ZM12.6759 27.795L11.4609 24.6L10.2459 27.795H12.6759ZM17.6593 30C17.5993 30 17.5483 29.982 17.5063 29.946C17.4703 29.904 17.4523 29.853 17.4523 29.793V24.501H15.7243C15.6643 24.501 15.6133 24.483 15.5713 24.447C15.5353 24.405 15.5173 24.354 15.5173 24.294V23.916C15.5173 23.856 15.5353 23.805 15.5713 23.763C15.6133 23.721 15.6643 23.7 15.7243 23.7H20.0623C20.1283 23.7 20.1793 23.721 20.2153 23.763C20.2573 23.799 20.2783 23.85 20.2783 23.916V24.294C20.2783 24.354 20.2573 24.405 20.2153 24.447C20.1733 24.483 20.1223 24.501 20.0623 24.501H18.3433V29.793C18.3433 29.853 18.3223 29.904 18.2803 29.946C18.2383 29.982 18.1873 30 18.1273 30H17.6593ZM24.9083 30.09C24.1043 30.09 23.4923 29.874 23.0723 29.442C22.6583 29.01 22.4363 28.413 22.4063 27.651C22.4003 27.489 22.3973 27.225 22.3973 26.859C22.3973 26.487 22.4003 26.217 22.4063 26.049C22.4363 25.293 22.6613 24.699 23.0813 24.267C23.5013 23.829 24.1103 23.61 24.9083 23.61C25.4423 23.61 25.8953 23.706 26.2673 23.898C26.6393 24.084 26.9213 24.33 27.1133 24.636C27.3053 24.942 27.4103 25.269 27.4283 25.617V25.635C27.4283 25.683 27.4073 25.725 27.3653 25.761C27.3293 25.791 27.2873 25.806 27.2393 25.806H26.7443C26.6243 25.806 26.5493 25.737 26.5193 25.599C26.4173 25.149 26.2343 24.834 25.9703 24.654C25.7063 24.468 25.3523 24.375 24.9083 24.375C23.8763 24.375 23.3423 24.948 23.3063 26.094C23.3003 26.256 23.2973 26.505 23.2973 26.841C23.2973 27.177 23.3003 27.432 23.3063 27.606C23.3423 28.752 23.8763 29.325 24.9083 29.325C25.3523 29.325 25.7063 29.235 25.9703 29.055C26.2403 28.869 26.4233 28.551 26.5193 28.101C26.5373 28.023 26.5643 27.969 26.6003 27.939C26.6363 27.909 26.6843 27.894 26.7443 27.894H27.2393C27.2933 27.894 27.3383 27.912 27.3743 27.948C27.4163 27.978 27.4343 28.02 27.4283 28.074C27.4103 28.428 27.3053 28.758 27.1133 29.064C26.9213 29.37 26.6393 29.619 26.2673 29.811C25.8953 29.997 25.4423 30.09 24.9083 30.09ZM30.3265 30C30.2665 30 30.2155 29.982 30.1735 29.946C30.1375 29.904 30.1195 29.853 30.1195 29.793V23.916C30.1195 23.85 30.1375 23.799 30.1735 23.763C30.2155 23.721 30.2665 23.7 30.3265 23.7H30.7855C30.8515 23.7 30.9025 23.721 30.9385 23.763C30.9805 23.799 31.0015 23.85 31.0015 23.916V26.4H34.0975V23.916C34.0975 23.85 34.1155 23.799 34.1515 23.763C34.1935 23.721 34.2445 23.7 34.3045 23.7H34.7635C34.8295 23.7 34.8805 23.721 34.9165 23.763C34.9585 23.799 34.9795 23.85 34.9795 23.916V29.793C34.9795 29.853 34.9585 29.904 34.9165 29.946C34.8745 29.982 34.8235 30 34.7635 30H34.3045C34.2445 30 34.1935 29.982 34.1515 29.946C34.1155 29.904 34.0975 29.853 34.0975 29.793V27.21H31.0015V29.793C31.0015 29.853 30.9805 29.904 30.9385 29.946C30.8965 29.982 30.8455 30 30.7855 30H30.3265ZM43.3462 30C43.1842 30 43.0732 29.922 43.0132 29.766L41.0062 23.979L40.9882 23.88C40.9882 23.832 41.0062 23.79 41.0422 23.754C41.0782 23.718 41.1202 23.7 41.1682 23.7H41.6362C41.7502 23.7 41.8312 23.754 41.8792 23.862L43.6343 28.965L45.3982 23.862C45.4103 23.826 45.4373 23.79 45.4792 23.754C45.5213 23.718 45.5723 23.7 45.6323 23.7H46.1002C46.1483 23.7 46.1903 23.718 46.2262 23.754C46.2683 23.79 46.2893 23.832 46.2893 23.88L46.2712 23.979L44.2553 29.766C44.1952 29.922 44.0872 30 43.9312 30H43.3462ZM49.0637 30C49.0037 30 48.9527 29.982 48.9107 29.946C48.8747 29.904 48.8567 29.853 48.8567 29.793V23.907C48.8567 23.847 48.8747 23.799 48.9107 23.763C48.9527 23.721 49.0037 23.7 49.0637 23.7H49.5407C49.6007 23.7 49.6487 23.721 49.6847 23.763C49.7267 23.799 49.7477 23.847 49.7477 23.907V29.793C49.7477 29.853 49.7267 29.904 49.6847 29.946C49.6487 29.982 49.6007 30 49.5407 30H49.0637ZM53.0096 30C52.9496 30 52.8986 29.982 52.8566 29.946C52.8206 29.904 52.8026 29.853 52.8026 29.793V23.916C52.8026 23.85 52.8206 23.799 52.8566 23.763C52.8986 23.721 52.9496 23.7 53.0096 23.7H55.0526C55.9586 23.7 56.6126 23.904 57.0146 24.312C57.4166 24.714 57.6266 25.323 57.6446 26.139C57.6506 26.313 57.6536 26.547 57.6536 26.841C57.6536 27.135 57.6506 27.372 57.6446 27.552C57.6266 28.122 57.5306 28.587 57.3566 28.947C57.1886 29.301 56.9216 29.565 56.5556 29.739C56.1896 29.913 55.7036 30 55.0976 30H53.0096ZM55.0526 29.235C55.4666 29.235 55.7936 29.178 56.0336 29.064C56.2796 28.95 56.4566 28.77 56.5646 28.524C56.6786 28.272 56.7416 27.936 56.7536 27.516C56.7656 27.156 56.7716 26.931 56.7716 26.841C56.7716 26.745 56.7656 26.523 56.7536 26.175C56.7416 25.581 56.6006 25.149 56.3306 24.879C56.0606 24.603 55.6196 24.465 55.0076 24.465H53.6846V29.235H55.0526ZM60.6997 30C60.6397 30 60.5887 29.982 60.5467 29.946C60.5107 29.904 60.4927 29.853 60.4927 29.793V23.916C60.4927 23.85 60.5107 23.799 60.5467 23.763C60.5887 23.721 60.6397 23.7 60.6997 23.7H64.4167C64.4767 23.7 64.5247 23.721 64.5607 23.763C64.6027 23.799 64.6237 23.85 64.6237 23.916V24.258C64.6237 24.318 64.6057 24.369 64.5697 24.411C64.5337 24.447 64.4827 24.465 64.4167 24.465H61.3567V26.436H64.2187C64.2787 26.436 64.3267 26.457 64.3627 26.499C64.4047 26.535 64.4257 26.586 64.4257 26.652V26.985C64.4257 27.045 64.4047 27.096 64.3627 27.138C64.3267 27.174 64.2787 27.192 64.2187 27.192H61.3567V29.235H64.4887C64.5547 29.235 64.6057 29.253 64.6417 29.289C64.6777 29.325 64.6957 29.376 64.6957 29.442V29.793C64.6957 29.853 64.6747 29.904 64.6327 29.946C64.5967 29.982 64.5487 30 64.4887 30H60.6997ZM69.6422 30.09C68.8562 30.09 68.2472 29.886 67.8152 29.478C67.3892 29.064 67.1642 28.443 67.1402 27.615C67.1342 27.435 67.1312 27.18 67.1312 26.85C67.1312 26.52 67.1342 26.268 67.1402 26.094C67.1642 25.284 67.3982 24.669 67.8422 24.249C68.2862 23.823 68.8862 23.61 69.6422 23.61C70.3922 23.61 70.9892 23.823 71.4332 24.249C71.8772 24.669 72.1112 25.284 72.1352 26.094C72.1472 26.442 72.1532 26.694 72.1532 26.85C72.1532 27 72.1472 27.255 72.1352 27.615C72.1112 28.443 71.8832 29.064 71.4512 29.478C71.0252 29.886 70.4222 30.09 69.6422 30.09ZM69.6422 29.325C70.1162 29.325 70.4942 29.181 70.7762 28.893C71.0582 28.605 71.2112 28.164 71.2352 27.57C71.2472 27.21 71.2532 26.97 71.2532 26.85C71.2532 26.718 71.2472 26.478 71.2352 26.13C71.2112 25.536 71.0552 25.095 70.7672 24.807C70.4852 24.519 70.1102 24.375 69.6422 24.375C69.1682 24.375 68.7872 24.519 68.4992 24.807C68.2172 25.095 68.0642 25.536 68.0402 26.13C68.0342 26.304 68.0312 26.544 68.0312 26.85C68.0312 27.15 68.0342 27.39 68.0402 27.57C68.0642 28.164 68.2172 28.605 68.4992 28.893C68.7872 29.181 69.1682 29.325 69.6422 29.325Z" fill="black"/>
<path d="M4.056 12.13C3.33667 12.13 2.71267 12.0173 2.184 11.792C1.664 11.5667 1.26533 11.272 0.988 10.908C0.710667 10.5353 0.563333 10.1367 0.546 9.712C0.546 9.64267 0.572 9.582 0.624 9.53C0.684667 9.46933 0.754 9.439 0.832 9.439H1.495C1.65967 9.439 1.77233 9.52567 1.833 9.699C1.911 10.063 2.132 10.375 2.496 10.635C2.86867 10.895 3.38867 11.025 4.056 11.025C4.77533 11.025 5.317 10.8993 5.681 10.648C6.045 10.388 6.227 10.0283 6.227 9.569C6.227 9.27433 6.136 9.036 5.954 8.854C5.78067 8.672 5.52067 8.51167 5.174 8.373C4.82733 8.23433 4.30733 8.061 3.614 7.853C2.938 7.66233 2.40067 7.45867 2.002 7.242C1.60333 7.02533 1.30433 6.75667 1.105 6.436C0.905667 6.11533 0.806 5.71233 0.806 5.227C0.806 4.759 0.931667 4.33867 1.183 3.966C1.443 3.59333 1.81133 3.303 2.288 3.095C2.76467 2.87833 3.33233 2.77 3.991 2.77C4.667 2.77 5.24767 2.89133 5.733 3.134C6.21833 3.368 6.58667 3.667 6.838 4.031C7.08933 4.395 7.22367 4.759 7.241 5.123C7.241 5.19233 7.215 5.253 7.163 5.305C7.11967 5.357 7.05467 5.383 6.968 5.383H6.279C6.097 5.383 5.98433 5.30067 5.941 5.136C5.889 4.772 5.68533 4.473 5.33 4.239C4.97467 3.99633 4.52833 3.875 3.991 3.875C3.40167 3.875 2.938 3.98767 2.6 4.213C2.262 4.43833 2.093 4.772 2.093 5.214C2.093 5.50867 2.171 5.75133 2.327 5.942C2.49167 6.13267 2.73867 6.30167 3.068 6.449C3.39733 6.58767 3.87833 6.748 4.511 6.93C5.24767 7.12933 5.82833 7.33733 6.253 7.554C6.67767 7.762 6.994 8.02633 7.202 8.347C7.41 8.659 7.514 9.05767 7.514 9.543C7.514 10.349 7.202 10.9817 6.578 11.441C5.954 11.9003 5.11333 12.13 4.056 12.13ZM12.7279 12C11.3586 12 10.6739 11.2373 10.6739 9.712V6.28H9.65991C9.57325 6.28 9.49958 6.254 9.43891 6.202C9.38691 6.14133 9.36091 6.06767 9.36091 5.981V5.539C9.36091 5.45233 9.38691 5.383 9.43891 5.331C9.49958 5.27033 9.57325 5.24 9.65991 5.24H10.6739V3.069C10.6739 2.98233 10.6999 2.913 10.7519 2.861C10.8126 2.80033 10.8862 2.77 10.9729 2.77H11.5839C11.6706 2.77 11.7399 2.80033 11.7919 2.861C11.8526 2.913 11.8829 2.98233 11.8829 3.069V5.24H13.4949C13.5816 5.24 13.6509 5.27033 13.7029 5.331C13.7636 5.383 13.7939 5.45233 13.7939 5.539V5.981C13.7939 6.06767 13.7636 6.14133 13.7029 6.202C13.6509 6.254 13.5816 6.28 13.4949 6.28H11.8829V9.621C11.8829 10.0543 11.9566 10.3837 12.1039 10.609C12.2512 10.8257 12.4939 10.934 12.8319 10.934H13.6249C13.7116 10.934 13.7809 10.9643 13.8329 11.025C13.8936 11.077 13.9239 11.1463 13.9239 11.233V11.701C13.9239 11.7877 13.8936 11.8613 13.8329 11.922C13.7809 11.974 13.7116 12 13.6249 12H12.7279ZM18.092 12.13C17.6674 12.13 17.273 12.0433 16.909 11.87C16.545 11.6967 16.2547 11.4627 16.038 11.168C15.83 10.8647 15.726 10.531 15.726 10.167C15.726 9.595 15.96 9.127 16.428 8.763C16.9047 8.39033 17.546 8.14767 18.352 8.035L20.289 7.762V7.385C20.289 6.501 19.782 6.059 18.768 6.059C18.3867 6.059 18.0747 6.14133 17.832 6.306C17.5894 6.462 17.4074 6.64833 17.286 6.865C17.26 6.943 17.2254 6.99933 17.182 7.034C17.1474 7.06867 17.0954 7.086 17.026 7.086H16.467C16.389 7.086 16.3197 7.06 16.259 7.008C16.207 6.94733 16.181 6.878 16.181 6.8C16.1897 6.592 16.285 6.358 16.467 6.098C16.6577 5.82933 16.948 5.59967 17.338 5.409C17.728 5.20967 18.209 5.11 18.781 5.11C19.7517 5.11 20.4494 5.33967 20.874 5.799C21.2987 6.24967 21.511 6.813 21.511 7.489V11.701C21.511 11.7877 21.4807 11.8613 21.42 11.922C21.368 11.974 21.2987 12 21.212 12H20.614C20.5274 12 20.4537 11.974 20.393 11.922C20.341 11.8613 20.315 11.7877 20.315 11.701V11.142C20.1244 11.4193 19.847 11.6533 19.483 11.844C19.119 12.0347 18.6554 12.13 18.092 12.13ZM18.365 11.155C18.9284 11.155 19.3877 10.973 19.743 10.609C20.107 10.2363 20.289 9.70333 20.289 9.01V8.646L18.781 8.867C18.1657 8.95367 17.702 9.101 17.39 9.309C17.078 9.50833 16.922 9.764 16.922 10.076C16.922 10.4227 17.065 10.6913 17.351 10.882C17.637 11.064 17.975 11.155 18.365 11.155ZM25.4632 14.47C25.3939 14.47 25.3332 14.444 25.2812 14.392C25.2292 14.34 25.2032 14.2793 25.2032 14.21C25.2032 14.1493 25.2249 14.0713 25.2682 13.976L26.2692 11.597L23.7862 5.734C23.7429 5.62133 23.7212 5.54767 23.7212 5.513C23.7212 5.435 23.7472 5.37 23.7992 5.318C23.8512 5.266 23.9162 5.24 23.9942 5.24H24.6312C24.7699 5.24 24.8739 5.31367 24.9432 5.461L26.9192 10.193L28.9472 5.461C29.0166 5.31367 29.1249 5.24 29.2722 5.24H29.8832C29.9612 5.24 30.0262 5.266 30.0782 5.318C30.1302 5.37 30.1562 5.43067 30.1562 5.5C30.1562 5.526 30.1346 5.604 30.0912 5.734L26.3992 14.249C26.3299 14.3963 26.2216 14.47 26.0742 14.47H25.4632ZM38.7168 12.13C38.1102 12.13 37.5988 12.0347 37.1828 11.844C36.7755 11.6447 36.4678 11.4193 36.2598 11.168C36.0605 10.9167 35.9608 10.7087 35.9608 10.544C35.9608 10.4573 35.9912 10.3923 36.0518 10.349C36.1212 10.297 36.1905 10.271 36.2598 10.271H36.8448C36.9315 10.271 37.0095 10.3143 37.0788 10.401C37.2868 10.6437 37.5122 10.8343 37.7548 10.973C37.9975 11.1117 38.3225 11.181 38.7298 11.181C39.1805 11.181 39.5445 11.0943 39.8218 10.921C40.1078 10.739 40.2508 10.492 40.2508 10.18C40.2508 9.972 40.1902 9.803 40.0688 9.673C39.9562 9.53433 39.7568 9.41733 39.4708 9.322C39.1935 9.218 38.7775 9.10533 38.2228 8.984C37.4688 8.81933 36.9315 8.581 36.6108 8.269C36.2988 7.957 36.1428 7.554 36.1428 7.06C36.1428 6.73067 36.2382 6.41867 36.4288 6.124C36.6282 5.82067 36.9142 5.578 37.2868 5.396C37.6682 5.20533 38.1232 5.11 38.6518 5.11C39.2065 5.11 39.6788 5.201 40.0688 5.383C40.4588 5.565 40.7492 5.78167 40.9398 6.033C41.1392 6.27567 41.2388 6.47933 41.2388 6.644C41.2388 6.722 41.2085 6.787 41.1478 6.839C41.0958 6.891 41.0308 6.917 40.9528 6.917H40.4068C40.3028 6.917 40.2162 6.87367 40.1468 6.787C40.0082 6.62233 39.8868 6.49667 39.7828 6.41C39.6875 6.31467 39.5445 6.23233 39.3538 6.163C39.1718 6.09367 38.9378 6.059 38.6518 6.059C38.2358 6.059 37.9152 6.15 37.6898 6.332C37.4645 6.50533 37.3518 6.735 37.3518 7.021C37.3518 7.203 37.3995 7.359 37.4948 7.489C37.5902 7.61033 37.7722 7.723 38.0408 7.827C38.3182 7.931 38.7168 8.03933 39.2368 8.152C40.0602 8.32533 40.6408 8.57667 40.9788 8.906C41.3255 9.22667 41.4988 9.63833 41.4988 10.141C41.4988 10.5137 41.3905 10.8517 41.1738 11.155C40.9572 11.4583 40.6365 11.6967 40.2118 11.87C39.7958 12.0433 39.2975 12.13 38.7168 12.13ZM45.9288 12.13C45.5041 12.13 45.1098 12.0433 44.7458 11.87C44.3818 11.6967 44.0915 11.4627 43.8748 11.168C43.6668 10.8647 43.5628 10.531 43.5628 10.167C43.5628 9.595 43.7968 9.127 44.2648 8.763C44.7415 8.39033 45.3828 8.14767 46.1888 8.035L48.1258 7.762V7.385C48.1258 6.501 47.6188 6.059 46.6048 6.059C46.2235 6.059 45.9115 6.14133 45.6688 6.306C45.4261 6.462 45.2441 6.64833 45.1228 6.865C45.0968 6.943 45.0621 6.99933 45.0188 7.034C44.9841 7.06867 44.9321 7.086 44.8628 7.086H44.3038C44.2258 7.086 44.1565 7.06 44.0958 7.008C44.0438 6.94733 44.0178 6.878 44.0178 6.8C44.0265 6.592 44.1218 6.358 44.3038 6.098C44.4945 5.82933 44.7848 5.59967 45.1748 5.409C45.5648 5.20967 46.0458 5.11 46.6178 5.11C47.5885 5.11 48.2861 5.33967 48.7108 5.799C49.1355 6.24967 49.3478 6.813 49.3478 7.489V11.701C49.3478 11.7877 49.3175 11.8613 49.2568 11.922C49.2048 11.974 49.1355 12 49.0488 12H48.4508C48.3641 12 48.2905 11.974 48.2298 11.922C48.1778 11.8613 48.1518 11.7877 48.1518 11.701V11.142C47.9611 11.4193 47.6838 11.6533 47.3198 11.844C46.9558 12.0347 46.4921 12.13 45.9288 12.13ZM46.2018 11.155C46.7651 11.155 47.2245 10.973 47.5798 10.609C47.9438 10.2363 48.1258 9.70333 48.1258 9.01V8.646L46.6178 8.867C46.0025 8.95367 45.5388 9.101 45.2268 9.309C44.9148 9.50833 44.7588 9.764 44.7588 10.076C44.7588 10.4227 44.9018 10.6913 45.1878 10.882C45.4738 11.064 45.8118 11.155 46.2018 11.155ZM53.1682 12C53.0815 12 53.0078 11.974 52.9472 11.922C52.8952 11.8613 52.8692 11.7877 52.8692 11.701V6.28H51.7642C51.6775 6.28 51.6038 6.254 51.5432 6.202C51.4912 6.14133 51.4652 6.06767 51.4652 5.981V5.539C51.4652 5.45233 51.4912 5.383 51.5432 5.331C51.6038 5.27033 51.6775 5.24 51.7642 5.24H52.8692V4.59C52.8692 3.11667 53.6145 2.38 55.1052 2.38H55.8852C55.9718 2.38 56.0412 2.41033 56.0932 2.471C56.1538 2.523 56.1842 2.59233 56.1842 2.679V3.121C56.1842 3.20767 56.1538 3.28133 56.0932 3.342C56.0412 3.394 55.9718 3.42 55.8852 3.42H55.1312C54.7412 3.42 54.4682 3.524 54.3122 3.732C54.1562 3.93133 54.0782 4.239 54.0782 4.655V5.24H55.7552C55.8418 5.24 55.9112 5.27033 55.9632 5.331C56.0238 5.383 56.0542 5.45233 56.0542 5.539V5.981C56.0542 6.06767 56.0238 6.14133 55.9632 6.202C55.9112 6.254 55.8418 6.28 55.7552 6.28H54.0782V11.701C54.0782 11.7877 54.0478 11.8613 53.9872 11.922C53.9352 11.974 53.8658 12 53.7792 12H53.1682ZM60.8122 12.13C59.9195 12.13 59.2045 11.857 58.6672 11.311C58.1385 10.7563 57.8482 10.0023 57.7962 9.049L57.7832 8.607L57.7962 8.178C57.8568 7.242 58.1515 6.49667 58.6802 5.942C59.2175 5.38733 59.9238 5.11 60.7992 5.11C61.7612 5.11 62.5065 5.41767 63.0352 6.033C63.5638 6.63967 63.8282 7.463 63.8282 8.503V8.724C63.8282 8.81067 63.7978 8.88433 63.7372 8.945C63.6852 8.997 63.6158 9.023 63.5292 9.023H59.0312V9.14C59.0572 9.70333 59.2262 10.1843 59.5382 10.583C59.8588 10.973 60.2792 11.168 60.7992 11.168C61.1978 11.168 61.5228 11.09 61.7742 10.934C62.0342 10.7693 62.2248 10.6003 62.3462 10.427C62.4242 10.323 62.4805 10.2623 62.5152 10.245C62.5585 10.219 62.6322 10.206 62.7362 10.206H63.3732C63.4512 10.206 63.5162 10.2277 63.5682 10.271C63.6202 10.3143 63.6462 10.375 63.6462 10.453C63.6462 10.6437 63.5248 10.8733 63.2822 11.142C63.0482 11.4107 62.7145 11.6447 62.2812 11.844C61.8565 12.0347 61.3668 12.13 60.8122 12.13ZM62.5932 8.126V8.087C62.5932 7.489 62.4285 7.00367 62.0992 6.631C61.7785 6.24967 61.3452 6.059 60.7992 6.059C60.2532 6.059 59.8198 6.24967 59.4992 6.631C59.1872 7.00367 59.0312 7.489 59.0312 8.087V8.126H62.5932ZM72.1384 12C72.0258 12 71.9391 11.974 71.8784 11.922C71.8178 11.87 71.7658 11.7877 71.7224 11.675L69.8764 5.643L69.8504 5.513C69.8504 5.435 69.8764 5.37 69.9284 5.318C69.9891 5.266 70.0541 5.24 70.1234 5.24H70.6954C70.7821 5.24 70.8514 5.266 70.9034 5.318C70.9641 5.36133 71.0031 5.409 71.0204 5.461L72.4634 10.362L74.0104 5.513C74.0278 5.44367 74.0668 5.383 74.1274 5.331C74.1881 5.27033 74.2704 5.24 74.3744 5.24H74.8164C74.9204 5.24 75.0028 5.27033 75.0634 5.331C75.1241 5.383 75.1631 5.44367 75.1804 5.513L76.7274 10.362L78.1704 5.461C78.1791 5.41767 78.2094 5.37 78.2614 5.318C78.3221 5.266 78.3958 5.24 78.4824 5.24H79.0674C79.1368 5.24 79.1974 5.266 79.2494 5.318C79.3014 5.37 79.3274 5.435 79.3274 5.513L79.3014 5.643L77.4684 11.675C77.4251 11.7877 77.3731 11.87 77.3124 11.922C77.2518 11.974 77.1608 12 77.0394 12H76.5324C76.2984 12 76.1554 11.8917 76.1034 11.675L74.5954 7.021L73.0874 11.675C73.0181 11.8917 72.8708 12 72.6454 12H72.1384ZM82.0023 3.979C81.9156 3.979 81.8419 3.953 81.7813 3.901C81.7293 3.84033 81.7033 3.76667 81.7033 3.68V2.978C81.7033 2.89133 81.7293 2.81767 81.7813 2.757C81.8419 2.69633 81.9156 2.666 82.0023 2.666H82.8213C82.9079 2.666 82.9816 2.69633 83.0423 2.757C83.1029 2.81767 83.1333 2.89133 83.1333 2.978V3.68C83.1333 3.76667 83.1029 3.84033 83.0423 3.901C82.9816 3.953 82.9079 3.979 82.8213 3.979H82.0023ZM82.1063 12C82.0196 12 81.9459 11.974 81.8853 11.922C81.8333 11.8613 81.8073 11.7877 81.8073 11.701V5.539C81.8073 5.45233 81.8333 5.383 81.8853 5.331C81.9459 5.27033 82.0196 5.24 82.1063 5.24H82.7303C82.8169 5.24 82.8863 5.27033 82.9383 5.331C82.9989 5.383 83.0293 5.45233 83.0293 5.539V11.701C83.0293 11.7877 82.9989 11.8613 82.9383 11.922C82.8863 11.974 82.8169 12 82.7303 12H82.1063ZM88.6347 12C87.2654 12 86.5807 11.2373 86.5807 9.712V6.28H85.5667C85.48 6.28 85.4064 6.254 85.3457 6.202C85.2937 6.14133 85.2677 6.06767 85.2677 5.981V5.539C85.2677 5.45233 85.2937 5.383 85.3457 5.331C85.4064 5.27033 85.48 5.24 85.5667 5.24H86.5807V3.069C86.5807 2.98233 86.6067 2.913 86.6587 2.861C86.7194 2.80033 86.793 2.77 86.8797 2.77H87.4907C87.5774 2.77 87.6467 2.80033 87.6987 2.861C87.7594 2.913 87.7897 2.98233 87.7897 3.069V5.24H89.4017C89.4884 5.24 89.5577 5.27033 89.6097 5.331C89.6704 5.383 89.7007 5.45233 89.7007 5.539V5.981C89.7007 6.06767 89.6704 6.14133 89.6097 6.202C89.5577 6.254 89.4884 6.28 89.4017 6.28H87.7897V9.621C87.7897 10.0543 87.8634 10.3837 88.0107 10.609C88.158 10.8257 88.4007 10.934 88.7387 10.934H89.5317C89.6184 10.934 89.6877 10.9643 89.7397 11.025C89.8004 11.077 89.8307 11.1463 89.8307 11.233V11.701C89.8307 11.7877 89.8004 11.8613 89.7397 11.922C89.6877 11.974 89.6184 12 89.5317 12H88.6347ZM92.4258 12C92.3392 12 92.2655 11.974 92.2048 11.922C92.1528 11.8613 92.1268 11.7877 92.1268 11.701V3.069C92.1268 2.98233 92.1528 2.913 92.2048 2.861C92.2655 2.80033 92.3392 2.77 92.4258 2.77H93.0758C93.1625 2.77 93.2318 2.80033 93.2838 2.861C93.3445 2.913 93.3748 2.98233 93.3748 3.069V6.098C93.6262 5.77733 93.9208 5.53467 94.2588 5.37C94.5968 5.19667 95.0172 5.11 95.5198 5.11C96.3518 5.11 96.9975 5.37867 97.4568 5.916C97.9248 6.44467 98.1588 7.151 98.1588 8.035V11.701C98.1588 11.7877 98.1285 11.8613 98.0678 11.922C98.0158 11.974 97.9465 12 97.8598 12H97.2098C97.1232 12 97.0495 11.974 96.9888 11.922C96.9368 11.8613 96.9108 11.7877 96.9108 11.701V8.1C96.9108 7.48467 96.7592 7.008 96.4558 6.67C96.1612 6.332 95.7322 6.163 95.1688 6.163C94.6228 6.163 94.1852 6.33633 93.8558 6.683C93.5352 7.021 93.3748 7.49333 93.3748 8.1V11.701C93.3748 11.7877 93.3445 11.8613 93.2838 11.922C93.2318 11.974 93.1625 12 93.0758 12H92.4258ZM108.786 12.13C107.651 12.13 106.767 11.8223 106.134 11.207C105.51 10.583 105.177 9.73367 105.133 8.659C105.125 8.399 105.12 7.99167 105.12 7.437C105.12 6.87367 105.125 6.46633 105.133 6.215C105.177 5.149 105.515 4.30833 106.147 3.693C106.78 3.07767 107.66 2.77 108.786 2.77C109.549 2.77 110.195 2.90867 110.723 3.186C111.261 3.45467 111.664 3.784 111.932 4.174C112.201 4.564 112.344 4.928 112.361 5.266V5.292C112.361 5.36133 112.335 5.41767 112.283 5.461C112.231 5.50433 112.166 5.526 112.088 5.526H111.321C111.235 5.526 111.17 5.513 111.126 5.487C111.092 5.45233 111.057 5.38733 111.022 5.292C110.892 4.902 110.641 4.56833 110.268 4.291C109.904 4.01367 109.41 3.875 108.786 3.875C108.067 3.875 107.504 4.07 107.096 4.46C106.689 4.85 106.468 5.45667 106.433 6.28C106.425 6.53133 106.42 6.917 106.42 7.437C106.42 7.94833 106.425 8.334 106.433 8.594C106.468 9.426 106.689 10.0413 107.096 10.44C107.504 10.83 108.067 11.025 108.786 11.025C109.514 11.025 110.095 10.8257 110.528 10.427C110.962 10.0283 111.178 9.43033 111.178 8.633V8.087H109.228C109.142 8.087 109.068 8.061 109.007 8.009C108.955 7.94833 108.929 7.87033 108.929 7.775V7.359C108.929 7.27233 108.955 7.19867 109.007 7.138C109.068 7.07733 109.142 7.047 109.228 7.047H112.166C112.253 7.047 112.322 7.07733 112.374 7.138C112.435 7.19 112.465 7.26367 112.465 7.359V8.607C112.465 9.31767 112.318 9.93733 112.023 10.466C111.729 10.9947 111.304 11.4063 110.749 11.701C110.195 11.987 109.54 12.13 108.786 12.13ZM117.96 12.13C117.007 12.13 116.266 11.8613 115.737 11.324C115.217 10.7867 114.94 10.0717 114.905 9.179L114.892 8.62L114.905 8.061C114.94 7.177 115.221 6.46633 115.75 5.929C116.279 5.383 117.015 5.11 117.96 5.11C118.905 5.11 119.641 5.383 120.17 5.929C120.699 6.46633 120.98 7.177 121.015 8.061C121.024 8.15633 121.028 8.34267 121.028 8.62C121.028 8.89733 121.024 9.08367 121.015 9.179C120.98 10.0717 120.699 10.7867 120.17 11.324C119.65 11.8613 118.913 12.13 117.96 12.13ZM117.96 11.129C118.506 11.129 118.935 10.9557 119.247 10.609C119.568 10.2623 119.741 9.764 119.767 9.114C119.776 9.02733 119.78 8.86267 119.78 8.62C119.78 8.37733 119.776 8.21267 119.767 8.126C119.741 7.476 119.568 6.97767 119.247 6.631C118.935 6.28433 118.506 6.111 117.96 6.111C117.414 6.111 116.981 6.28433 116.66 6.631C116.339 6.97767 116.17 7.476 116.153 8.126L116.14 8.62L116.153 9.114C116.17 9.764 116.339 10.2623 116.66 10.609C116.981 10.9557 117.414 11.129 117.96 11.129ZM127.141 12.13C125.979 12.13 125.095 11.818 124.489 11.194C123.891 10.57 123.57 9.70767 123.527 8.607C123.518 8.373 123.514 7.99167 123.514 7.463C123.514 6.92567 123.518 6.53567 123.527 6.293C123.57 5.201 123.895 4.343 124.502 3.719C125.108 3.08633 125.988 2.77 127.141 2.77C127.912 2.77 128.566 2.90867 129.104 3.186C129.641 3.45467 130.048 3.81 130.326 4.252C130.603 4.694 130.755 5.16633 130.781 5.669V5.695C130.781 5.76433 130.75 5.825 130.69 5.877C130.638 5.92033 130.577 5.942 130.508 5.942H129.793C129.619 5.942 129.511 5.84233 129.468 5.643C129.32 4.993 129.056 4.538 128.675 4.278C128.293 4.00933 127.782 3.875 127.141 3.875C125.65 3.875 124.879 4.70267 124.827 6.358C124.818 6.592 124.814 6.95167 124.814 7.437C124.814 7.92233 124.818 8.29067 124.827 8.542C124.879 10.1973 125.65 11.025 127.141 11.025C127.782 11.025 128.293 10.895 128.675 10.635C129.065 10.3663 129.329 9.907 129.468 9.257C129.494 9.14433 129.533 9.06633 129.585 9.023C129.637 8.97967 129.706 8.958 129.793 8.958H130.508C130.586 8.958 130.651 8.984 130.703 9.036C130.763 9.07933 130.789 9.14 130.781 9.218C130.755 9.72933 130.603 10.206 130.326 10.648C130.048 11.09 129.641 11.4497 129.104 11.727C128.566 11.9957 127.912 12.13 127.141 12.13ZM136.163 12.13C135.21 12.13 134.469 11.8613 133.94 11.324C133.42 10.7867 133.143 10.0717 133.108 9.179L133.095 8.62L133.108 8.061C133.143 7.177 133.424 6.46633 133.953 5.929C134.482 5.383 135.218 5.11 136.163 5.11C137.108 5.11 137.844 5.383 138.373 5.929C138.902 6.46633 139.183 7.177 139.218 8.061C139.227 8.15633 139.231 8.34267 139.231 8.62C139.231 8.89733 139.227 9.08367 139.218 9.179C139.183 10.0717 138.902 10.7867 138.373 11.324C137.853 11.8613 137.116 12.13 136.163 12.13ZM136.163 11.129C136.709 11.129 137.138 10.9557 137.45 10.609C137.771 10.2623 137.944 9.764 137.97 9.114C137.979 9.02733 137.983 8.86267 137.983 8.62C137.983 8.37733 137.979 8.21267 137.97 8.126C137.944 7.476 137.771 6.97767 137.45 6.631C137.138 6.28433 136.709 6.111 136.163 6.111C135.617 6.111 135.184 6.28433 134.863 6.631C134.542 6.97767 134.373 7.476 134.356 8.126L134.343 8.62L134.356 9.114C134.373 9.764 134.542 10.2623 134.863 10.609C135.184 10.9557 135.617 11.129 136.163 11.129ZM142.198 12C142.111 12 142.037 11.974 141.977 11.922C141.925 11.8613 141.899 11.7877 141.899 11.701V5.552C141.899 5.46533 141.925 5.39167 141.977 5.331C142.037 5.27033 142.111 5.24 142.198 5.24H142.796C142.882 5.24 142.956 5.27033 143.017 5.331C143.077 5.39167 143.108 5.46533 143.108 5.552V6.124C143.463 5.53467 144.07 5.24 144.928 5.24H145.435C145.521 5.24 145.591 5.27033 145.643 5.331C145.703 5.383 145.734 5.45233 145.734 5.539V6.072C145.734 6.15867 145.703 6.228 145.643 6.28C145.591 6.332 145.521 6.358 145.435 6.358H144.655C144.187 6.358 143.818 6.49667 143.55 6.774C143.281 7.04267 143.147 7.411 143.147 7.879V11.701C143.147 11.7877 143.116 11.8613 143.056 11.922C142.995 11.974 142.921 12 142.835 12H142.198ZM150.519 12.13C149.566 12.13 148.825 11.8613 148.296 11.324C147.776 10.7867 147.499 10.0717 147.464 9.179L147.451 8.62L147.464 8.061C147.499 7.177 147.781 6.46633 148.309 5.929C148.838 5.383 149.575 5.11 150.519 5.11C151.464 5.11 152.201 5.383 152.729 5.929C153.258 6.46633 153.54 7.177 153.574 8.061C153.583 8.15633 153.587 8.34267 153.587 8.62C153.587 8.89733 153.583 9.08367 153.574 9.179C153.54 10.0717 153.258 10.7867 152.729 11.324C152.209 11.8613 151.473 12.13 150.519 12.13ZM150.519 11.129C151.065 11.129 151.494 10.9557 151.806 10.609C152.127 10.2623 152.3 9.764 152.326 9.114C152.335 9.02733 152.339 8.86267 152.339 8.62C152.339 8.37733 152.335 8.21267 152.326 8.126C152.3 7.476 152.127 6.97767 151.806 6.631C151.494 6.28433 151.065 6.111 150.519 6.111C149.973 6.111 149.54 6.28433 149.219 6.631C148.899 6.97767 148.73 7.476 148.712 8.126L148.699 8.62L148.712 9.114C148.73 9.764 148.899 10.2623 149.219 10.609C149.54 10.9557 149.973 11.129 150.519 11.129ZM156.554 12C156.467 12 156.394 11.974 156.333 11.922C156.281 11.8613 156.255 11.7877 156.255 11.701V5.539C156.255 5.45233 156.281 5.383 156.333 5.331C156.394 5.27033 156.467 5.24 156.554 5.24H157.165C157.252 5.24 157.321 5.27033 157.373 5.331C157.434 5.383 157.464 5.45233 157.464 5.539V6.111C157.715 5.79033 158.01 5.54333 158.348 5.37C158.695 5.19667 159.124 5.11 159.635 5.11C160.467 5.11 161.113 5.37867 161.572 5.916C162.04 6.44467 162.274 7.151 162.274 8.035V11.701C162.274 11.7877 162.244 11.8613 162.183 11.922C162.131 11.974 162.062 12 161.975 12H161.325C161.238 12 161.165 11.974 161.104 11.922C161.052 11.8613 161.026 11.7877 161.026 11.701V8.1C161.026 7.48467 160.874 7.008 160.571 6.67C160.276 6.332 159.847 6.163 159.284 6.163C158.738 6.163 158.305 6.33633 157.984 6.683C157.663 7.021 157.503 7.49333 157.503 8.1V11.701C157.503 11.7877 157.473 11.8613 157.412 11.922C157.36 11.974 157.291 12 157.204 12H156.554ZM167.064 12.13C166.639 12.13 166.245 12.0433 165.881 11.87C165.517 11.6967 165.227 11.4627 165.01 11.168C164.802 10.8647 164.698 10.531 164.698 10.167C164.698 9.595 164.932 9.127 165.4 8.763C165.877 8.39033 166.518 8.14767 167.324 8.035L169.261 7.762V7.385C169.261 6.501 168.754 6.059 167.74 6.059C167.359 6.059 167.047 6.14133 166.804 6.306C166.561 6.462 166.379 6.64833 166.258 6.865C166.232 6.943 166.197 6.99933 166.154 7.034C166.119 7.06867 166.067 7.086 165.998 7.086H165.439C165.361 7.086 165.292 7.06 165.231 7.008C165.179 6.94733 165.153 6.878 165.153 6.8C165.162 6.592 165.257 6.358 165.439 6.098C165.63 5.82933 165.92 5.59967 166.31 5.409C166.7 5.20967 167.181 5.11 167.753 5.11C168.724 5.11 169.421 5.33967 169.846 5.799C170.271 6.24967 170.483 6.813 170.483 7.489V11.701C170.483 11.7877 170.453 11.8613 170.392 11.922C170.34 11.974 170.271 12 170.184 12H169.586C169.499 12 169.426 11.974 169.365 11.922C169.313 11.8613 169.287 11.7877 169.287 11.701V11.142C169.096 11.4193 168.819 11.6533 168.455 11.844C168.091 12.0347 167.627 12.13 167.064 12.13ZM167.337 11.155C167.9 11.155 168.36 10.973 168.715 10.609C169.079 10.2363 169.261 9.70333 169.261 9.01V8.646L167.753 8.867C167.138 8.95367 166.674 9.101 166.362 9.309C166.05 9.50833 165.894 9.764 165.894 10.076C165.894 10.4227 166.037 10.6913 166.323 10.882C166.609 11.064 166.947 11.155 167.337 11.155Z" fill="#B0B0B0"/>
</svg>
